name Walk2.mot
datacolumns 19
datarows 15
range 2.54400000 2.55800000
endheader

                time	   L_ground_force_vx	   L_ground_force_vy	   L_ground_force_vz	   L_ground_force_px	   L_ground_force_py	   L_ground_force_pz	   R_ground_force_vx	   R_ground_force_vy	   R_ground_force_vz	   R_ground_force_px	   R_ground_force_py	   R_ground_force_pz	   L_ground_torque_x	   L_ground_torque_y	   L_ground_torque_z	   R_ground_torque_x	   R_ground_torque_y	   R_ground_torque_z	
          2.54400000	          0.00000000	          0.00000000	          0.00000000	         -0.00000000	          0.00000000	         -0.00000000	          1.14604277	         10.34459681	          0.88410457	          0.18808218	          0.00000000	          0.05044171	          0.00000000	          0.00000000	          0.00000000	          0.00000000	         -0.58836204	          0.00000000	
          2.54500000	          0.00000000	          0.00000000	          0.00000000	         -0.00000000	          0.00000000	         -0.00000000	          0.75580879	          8.47261729	          0.84753062	          0.17880479	          0.00000000	          0.04781532	          0.00000000	          0.00000000	          0.00000000	          0.00000000	         -0.49810954	          0.00000000	
          2.54600000	          0.00000000	          0.00000000	          0.00000000	         -0.00000000	          0.00000000	         -0.00000000	          0.39589812	          6.72778523	          0.81086371	          0.16964053	          0.00000000	          0.04523155	          0.00000000	          0.00000000	          0.00000000	          0.00000000	         -0.41364844	          0.00000000	
          2.54700000	          0.00000000	          0.00000000	         -0.00000000	         -0.00000000	          0.00000000	         -0.00000000	          0.06509254	          5.10588331	          0.77425031	          0.16061443	          0.00000000	          0.04269655	          0.00000000	          0.00000000	          0.00000000	          0.00000000	         -0.33480549	          0.00000000	
          2.54800000	          0.00000000	          0.00000000	         -0.00000000	         -0.00000000	          0.00000000	         -0.00000000	         -0.23783255	          3.60258831	          0.73782422	          0.15174884	          0.00000000	          0.04021574	          0.00000000	          0.00000000	          0.00000000	          0.00000000	         -0.26140095	          0.00000000	
          2.54900000	          0.00000000	          0.00000000	         -0.00000000	         -0.00000000	          0.00000000	         -0.00000000	         -0.51410296	          2.21349636	          0.70170716	          0.14306362	          0.00000000	          0.03779390	          0.00000000	          0.00000000	          0.00000000	          0.00000000	         -0.19324979	          0.00000000	
          2.55000000	          0.00000000	          0.00000000	         -0.00000000	         -0.00000000	          0.00000000	         -0.00000000	         -0.76494104	          0.93414651	          0.66600934	          0.13457624	          0.00000000	          0.03543515	          0.00000000	          0.00000000	          0.00000000	          0.00000000	         -0.13016288	          0.00000000	
          2.55100000	          0.00000000	          0.00000000	         -0.00000000	         -0.00000000	          0.00000000	         -0.00000000	         -0.99156129	         -0.23995761	          0.63083000	          0.12630197	          0.00000000	          0.03314306	          0.00000000	          0.00000000	          0.00000000	          0.00000000	         -0.07194803	          0.00000000	
          2.55200000	          0.00000000	          0.00000000	         -0.00000000	         -0.00000000	          0.00000000	         -0.00000000	         -1.19516646	         -1.31332776	          0.59625800	          0.11825394	          0.00000000	          0.03092061	          0.00000000	          0.00000000	          0.00000000	          0.00000000	         -0.01841098	          0.00000000	
          2.55300000	          0.00000000	          0.00000000	         -0.00000000	         -0.00000000	          0.00000000	         -0.00000000	         -1.37694401	         -2.29047275	          0.56237233	          0.11044334	          0.00000000	          0.02877028	          0.00000000	          0.00000000	          0.00000000	          0.00000000	          0.03064371	          0.00000000	
          2.55400000	          0.00000000	          0.00000000	         -0.00000000	         -0.00000000	          0.00000000	         -0.00000000	         -1.53806293	         -3.17588164	          0.52924268	          0.10287948	          0.00000000	          0.02669406	          0.00000000	          0.00000000	          0.00000000	          0.00000000	          0.07541176	          0.00000000	
          2.55500000	          0.00000000	          0.00000000	         -0.00000000	         -0.00000000	          0.00000000	         -0.00000000	         -1.67967086	         -3.97400846	          0.49692998	          0.09556998	          0.00000000	          0.02469350	          0.00000000	          0.00000000	          0.00000000	          0.00000000	          0.11608849	          0.00000000	
          2.55600000	          0.00000000	          0.00000000	         -0.00000000	         -0.00000000	          0.00000000	         -0.00000000	         -1.80289162	         -4.68925836	          0.46548685	          0.08852083	          0.00000000	          0.02276973	          0.00000000	          0.00000000	          0.00000000	          0.00000000	          0.15286804	          0.00000000	
          2.55700000	          0.00000000	          0.00000000	         -0.00000000	         -0.00000000	          0.00000000	         -0.00000000	         -1.90882292	         -5.32597512	          0.43495818	          0.08173652	          0.00000000	          0.02092348	          0.00000000	          0.00000000	          0.00000000	          0.00000000	          0.18594278	          0.00000000	
          2.55800000	          0.00000000	          0.00000000	         -0.00000000	         -0.00000000	          0.00000000	         -0.00000000	         -1.99853450	         -5.88842994	          0.40538158	          0.07522018	          0.00000000	          0.01915514	          0.00000000	          0.00000000	          0.00000000	          0.00000000	          0.21550274	          0.00000000	
